<svg width="159" height="27" viewBox="0 0 159 27" fill="none" xmlns="http://www.w3.org/2000/svg">
<path d="M51.4512 0.736915H34.9049C30.9967 0.736915 26.9575 3.69773 25.608 7.52498C25.5256 7.67394 25.4577 7.8305 25.4054 7.99248L24.2257 11.6203C23.3029 11.1955 22.2979 10.979 21.2821 10.986H6.91584C6.60417 10.986 6.06188 10.9065 5.94968 10.3798C5.83748 9.85312 6.04632 9.11447 6.51381 8.4179C7.52984 6.90788 9.30009 6.08041 11.3711 6.16768C12.7954 6.22378 14.2166 6.20508 15.5911 6.18793C16.2502 6.17858 16.9312 6.17079 17.5919 6.17079H23.5448C24.2651 6.17079 24.956 5.88462 25.4653 5.37524C25.9747 4.86587 26.2609 4.17501 26.2609 3.45463C26.2609 2.73426 25.9747 2.04339 25.4653 1.53402C24.956 1.02464 24.2651 0.738465 23.5448 0.738465H17.5919C16.8969 0.738465 16.1973 0.747824 15.5209 0.757174C14.1558 0.774316 12.8718 0.791451 11.5831 0.741585C7.64672 0.585752 4.06722 2.32484 2.00711 5.38851C0.695 7.33954 0.208836 9.51652 0.638934 11.519C1.26226 14.4486 3.78983 16.4168 6.91584 16.4168H21.2821C21.5267 16.4168 21.9646 16.4557 22.15 16.7113C22.2918 16.9061 22.3666 17.3424 22.1578 17.986C21.6062 19.6846 19.6006 21.2336 17.9503 21.2336H4.65006C4.288 21.2249 3.92785 21.2887 3.59081 21.4213C3.25378 21.5538 2.94665 21.7525 2.68751 22.0055C2.42837 22.2585 2.22247 22.5607 2.08187 22.8945C1.94127 23.2283 1.86882 23.5868 1.86882 23.9489C1.86882 24.3111 1.94127 24.6696 2.08187 25.0034C2.22247 25.3371 2.42837 25.6394 2.68751 25.8924C2.94665 26.1454 3.25378 26.3441 3.59081 26.4766C3.92785 26.6092 4.288 26.673 4.65006 26.6643H17.9503C21.9303 26.6643 26.0537 23.5898 27.3221 19.6643H27.3393C27.8909 17.9642 29.8949 16.4168 31.5467 16.4168H48.1024C48.4645 16.4255 48.8246 16.3616 49.1616 16.2291C49.4987 16.0965 49.8058 15.8979 50.0649 15.6449C50.3241 15.3919 50.53 15.0896 50.6706 14.7558C50.8112 14.4221 50.8836 14.0636 50.8836 13.7014C50.8836 13.3392 50.8112 12.9807 50.6706 12.647C50.53 12.3132 50.3241 12.0109 50.0649 11.7579C49.8058 11.5049 49.4987 11.3063 49.1616 11.1737C48.8246 11.0412 48.4645 10.9773 48.1024 10.986H31.5389C31.0539 10.9867 30.5699 11.0311 30.0928 11.1185L30.5603 9.67079C30.5898 9.58185 30.6143 9.49133 30.6336 9.39964L30.6897 9.41678C31.2413 7.71821 33.2469 6.17079 34.8971 6.17079H51.4512C52.1716 6.17079 52.8625 5.88462 53.3719 5.37524C53.8812 4.86587 54.1674 4.17501 54.1674 3.45463C54.1674 2.73426 53.8812 2.04339 53.3719 1.53402C52.8625 1.02464 52.1716 0.738465 51.4512 0.738465" fill="white"/>
<path d="M62.8239 22.7422H63.5486L64.1797 26.9653H63.335L63.1792 25.9118H61.7082L61.0848 26.9653H60.2402L62.8239 22.7422ZM63.1699 25.3352L62.9704 23.6756L61.9809 25.3352H63.1699Z" fill="white"/>
<path d="M70.6455 26.9652L71.621 22.7422H74.4572L74.292 23.4621H72.2755L72.0246 24.5498H73.7014L73.5471 25.2168H71.8703L71.4667 26.9652H70.6455Z" fill="white"/>
<path d="M78.1396 26.9946C77.8617 27.0017 77.5865 26.9396 77.3386 26.8138C77.1234 26.6993 76.9394 26.534 76.8026 26.3323C76.666 26.1253 76.5771 25.8906 76.5423 25.6451C76.502 25.3815 76.5131 25.1127 76.575 24.8534C76.6435 24.5664 76.76 24.293 76.9195 24.0447C77.0829 23.7893 77.2823 23.5589 77.5116 23.3606C77.7409 23.1653 77.9997 23.0075 78.2783 22.8931C78.553 22.7772 78.8481 22.7173 79.1463 22.717C79.4219 22.7098 79.6946 22.7742 79.9379 22.904C80.1531 23.0215 80.3361 23.1901 80.4708 23.3948C80.6044 23.604 80.6916 23.8394 80.7264 24.0852C80.7657 24.3445 80.7552 24.609 80.6953 24.8643C80.6278 25.1502 80.5124 25.4226 80.354 25.67C80.1937 25.9235 79.9967 26.152 79.7696 26.3479C79.5415 26.5433 79.2838 26.7011 79.006 26.8154C78.7318 26.9308 78.4372 26.9901 78.1396 26.9899M77.4087 24.8488C77.3668 25.022 77.3536 25.201 77.3698 25.3786C77.3819 25.5372 77.4282 25.6914 77.5054 25.8305C77.58 25.9601 77.6875 26.0676 77.817 26.1422C77.9673 26.2261 78.1375 26.2675 78.3095 26.2622C78.5013 26.2631 78.6908 26.221 78.8642 26.139C79.0378 26.0591 79.196 25.9494 79.3317 25.8149C79.4679 25.6811 79.5835 25.5277 79.6746 25.3599C79.7642 25.1984 79.8313 25.0253 79.874 24.8456C79.915 24.6722 79.9271 24.4932 79.9099 24.3158C79.8948 24.1571 79.847 24.0033 79.7696 23.8639C79.6955 23.734 79.5879 23.6263 79.4579 23.5522C79.3084 23.4713 79.1401 23.4316 78.9702 23.4369C78.7775 23.4355 78.5869 23.477 78.4123 23.5585C78.2391 23.6376 78.0809 23.7462 77.9448 23.8795C77.8106 24.0131 77.6962 24.1653 77.6051 24.3314C77.516 24.493 77.4494 24.666 77.4072 24.8456" fill="white"/>
<path d="M83.2197 26.9652L84.1952 22.7422H85.0149L84.2061 26.2453H86.3597L86.1929 26.9652H83.2197Z" fill="white"/>
<path d="M89.0723 26.9652L90.0462 22.7422H90.8675L90.0587 26.2453H92.2124L92.0456 26.9652H89.0723Z" fill="white"/>
<path d="M96.4583 26.9946C96.1804 27.0017 95.9052 26.9396 95.6573 26.8138C95.4421 26.6993 95.2581 26.534 95.1212 26.3323C94.9848 26.1251 94.8955 25.8905 94.8595 25.6451C94.8205 25.3814 94.8321 25.1127 94.8937 24.8534C94.9622 24.5664 95.0786 24.2929 95.2381 24.0447C95.4012 23.789 95.6007 23.5586 95.8303 23.3606C96.0597 23.1653 96.3184 23.0075 96.597 22.8931C96.8712 22.7773 97.1658 22.7175 97.4635 22.717C97.7396 22.7098 98.0128 22.7742 98.2566 22.904C98.4716 23.0211 98.6542 23.1898 98.788 23.3948C98.9228 23.6036 99.0105 23.8391 99.0451 24.0852C99.0848 24.3446 99.0737 24.6092 99.0124 24.8643C98.9462 25.1504 98.8312 25.4229 98.6727 25.67C98.5124 25.9235 98.3155 26.152 98.0883 26.3479C97.86 26.5429 97.6023 26.7007 97.3247 26.8154C97.0504 26.9306 96.7559 26.99 96.4583 26.9899M95.7275 24.8488C95.6847 25.0219 95.6716 25.201 95.6885 25.3786C95.7006 25.5372 95.7469 25.6914 95.8241 25.8305C95.8987 25.96 96.0062 26.0676 96.1358 26.1422C96.286 26.2261 96.4562 26.2675 96.6281 26.2622C96.8199 26.2631 97.0095 26.221 97.1829 26.139C97.3563 26.0587 97.5144 25.9491 97.6504 25.8149C97.7866 25.6811 97.9022 25.5277 97.9933 25.3599C98.0829 25.1984 98.15 25.0253 98.1927 24.8456C98.2337 24.6722 98.2458 24.4932 98.2285 24.3158C98.2134 24.1571 98.1657 24.0033 98.0883 23.8639C98.0144 23.7338 97.9067 23.6261 97.7766 23.5522C97.6272 23.471 97.4589 23.4312 97.2889 23.4369C97.0967 23.4357 96.9067 23.4772 96.7325 23.5585C96.5591 23.6372 96.4008 23.7459 96.265 23.8795C95.9997 24.1454 95.8136 24.48 95.7275 24.8456" fill="white"/>
<path d="M103.808 22.7531H104.562L104.716 24.1509L105.514 22.7531H106.276L105.112 24.6745L105.337 26.024L107.289 22.7422H108.182L105.488 26.9652H104.798L104.475 25.1919L103.334 26.9652H102.645L101.913 22.7422H102.794L103.236 26.024L104.071 24.6745L103.808 22.7531Z" fill="white"/>
<path d="M113.624 26.9652L114.599 22.7422H117.437L117.27 23.4621H115.254L115.003 24.5498H116.68L116.526 25.2168H114.849L114.445 26.9652H113.624Z" fill="white"/>
<path d="M121.363 26.2701C121.543 26.2734 121.72 26.2321 121.88 26.1501C122.029 26.0715 122.162 25.9658 122.273 25.8385C122.386 25.7074 122.479 25.5597 122.547 25.4006C122.619 25.2368 122.675 25.0667 122.715 24.8926L123.213 22.739H124.028L123.53 24.8926C123.466 25.175 123.367 25.4486 123.237 25.7076C123.115 25.9544 122.952 26.1792 122.756 26.373C122.561 26.5656 122.331 26.719 122.078 26.8249C121.8 26.9401 121.502 26.9969 121.201 26.9916C120.918 27.0039 120.636 26.9438 120.383 26.8171C120.185 26.7101 120.022 26.5476 119.915 26.3496C119.809 26.1427 119.753 25.9137 119.752 25.6811C119.747 25.4147 119.775 25.1488 119.836 24.8894L120.333 22.7358H121.154L120.657 24.8894C120.617 25.0582 120.594 25.2304 120.588 25.4037C120.582 25.553 120.606 25.7022 120.66 25.8416C120.709 25.9685 120.795 26.0773 120.908 26.1532C121.044 26.2376 121.203 26.2784 121.363 26.2701Z" fill="white"/>
<path d="M126.257 26.9714L127.232 22.7483H129.102C129.28 22.7443 129.456 22.7862 129.613 22.8699C129.754 22.9478 129.874 23.0578 129.964 23.1909C130.054 23.3278 130.114 23.4824 130.139 23.6443C130.168 23.813 130.162 23.9858 130.123 24.1524C130.059 24.4278 129.929 24.6837 129.746 24.8988C129.568 25.1148 129.338 25.2817 129.077 25.3834L129.674 26.9714H128.752L128.217 25.5564H127.408L127.081 26.9714H126.257ZM127.57 24.8365H128.599C128.677 24.8356 128.753 24.8175 128.823 24.7835C128.898 24.7461 128.967 24.6966 129.026 24.637C129.09 24.5729 129.146 24.4999 129.19 24.4204C129.236 24.3364 129.271 24.2461 129.292 24.1524C129.315 24.0628 129.32 23.9697 129.308 23.8781C129.298 23.8011 129.271 23.7272 129.23 23.6615C129.193 23.6018 129.142 23.5526 129.08 23.5187C129.019 23.4849 128.95 23.4675 128.879 23.4683H127.887L127.57 24.8365Z" fill="white"/>
<path d="M136.494 23.4621H135.143L134.334 26.9652H133.521L134.328 23.4621H132.979L133.145 22.7422H136.659L136.494 23.4621Z" fill="white"/>
<path d="M143.114 22.7422L142.138 26.9652H141.323L141.739 25.1623H139.824L139.408 26.9652H138.587L139.562 22.7422H140.384L139.989 24.4486H141.905L142.299 22.7422H143.114Z" fill="white"/>
<path d="M148.495 26.2453L148.329 26.9652H145.397L146.371 22.7422H149.251L149.084 23.4606H147.026L146.792 24.4782H148.57L148.416 25.1451H146.638L146.384 26.2453H148.495Z" fill="white"/>
<path d="M151.351 26.9714L152.326 22.7483H154.196C154.374 22.7443 154.55 22.7862 154.707 22.8699C154.848 22.9478 154.968 23.0578 155.058 23.1909C155.148 23.3278 155.207 23.4824 155.232 23.6443C155.261 23.813 155.256 23.9858 155.217 24.1524C155.153 24.4278 155.023 24.6837 154.84 24.8988C154.662 25.1148 154.432 25.2817 154.171 25.3834L154.768 26.9714H153.845L153.311 25.5564H152.502L152.175 26.9714H151.351ZM152.664 24.8365H153.693C153.771 24.8356 153.847 24.8175 153.917 24.7835C153.992 24.7461 154.061 24.6966 154.12 24.637C154.181 24.5724 154.234 24.4995 154.276 24.4204C154.322 24.3364 154.357 24.2461 154.378 24.1524C154.401 24.0628 154.406 23.9697 154.394 23.8781C154.384 23.8011 154.357 23.7272 154.316 23.6615C154.279 23.6018 154.228 23.5526 154.166 23.5187C154.105 23.4849 154.036 23.4675 153.965 23.4683H152.973L152.664 24.8365Z" fill="white"/>
<path d="M62.0568 17.7851C61.5707 17.5514 61.1289 17.2351 60.751 16.8501L61.9104 15.8341L63.037 14.7791C63.2275 14.9811 63.455 15.1446 63.7071 15.2607C64.5164 15.6615 65.4114 15.8583 66.3142 15.8341C67.9297 15.8341 68.8818 15.391 69.1706 14.5049L69.1831 14.4394C69.2257 14.1909 69.1716 13.9356 69.0319 13.7257C68.6922 13.2468 67.953 13.0078 66.8144 13.0089C64.8166 13.0089 63.4427 12.4572 62.6926 11.3539C62.433 11.0078 62.2504 10.6102 62.1571 10.1876C62.0638 9.7651 62.0621 9.32751 62.1519 8.90425C62.1836 8.7273 62.2278 8.55284 62.2843 8.38221C62.6293 7.27892 63.3419 6.37561 64.4224 5.67228C65.5163 4.99493 66.8108 4.65625 68.3057 4.65625C69.7373 4.65625 70.9912 4.93 72.0675 5.47749C72.5557 5.71291 72.9971 6.03499 73.3703 6.42807L71.092 8.45389C71.1014 8.40246 70.8769 8.24975 70.4172 7.99886C69.6042 7.60685 68.7093 7.41453 67.807 7.43787C66.1916 7.43787 65.2566 7.8638 65.0021 8.71569L64.9693 8.89802C64.9481 9.00118 64.9486 9.10761 64.9706 9.2106C64.9925 9.3136 65.0356 9.41091 65.0971 9.49641C65.4379 9.97533 66.177 10.2143 67.3146 10.2132C69.3051 10.2132 70.6925 10.7649 71.4769 11.8682C71.7204 12.2221 71.8902 12.6213 71.9761 13.0422C72.062 13.463 72.0624 13.8969 71.9771 14.3179C71.9434 14.5077 71.8971 14.6952 71.8384 14.8789C71.5185 15.9822 70.8079 16.8725 69.7067 17.5498C68.6075 18.2521 67.3089 18.6038 65.8109 18.6048C64.3793 18.6048 63.1253 18.3311 62.049 17.7836" fill="white"/>
<path d="M85.7574 4.65149L84.2645 13.0166C84.0693 14.0169 83.6692 14.9661 83.0895 15.8044C81.8013 17.6744 80.0061 18.6094 77.7039 18.6094C75.3841 18.6094 73.9261 17.6744 73.3298 15.8044C73.0204 14.909 72.9453 13.9493 73.1116 13.0166L74.6044 4.65149H77.3923L75.8994 13.0166C75.8131 13.4835 75.8529 13.9649 76.0147 14.4113C76.3015 15.34 77.0287 15.8044 78.1964 15.8044C79.3641 15.8044 80.2637 15.34 80.8954 14.4113C81.1804 13.9906 81.3761 13.5159 81.4704 13.0166L82.9633 4.65149H85.7574Z" fill="white"/>
<path d="M92.8029 4.65149C93.7347 4.65238 94.6516 4.88535 95.4708 5.32936C97.1631 6.25812 97.802 7.88656 97.3875 10.2147C96.973 12.5428 95.7518 14.176 93.7239 15.1141C92.8172 15.5662 91.8213 15.8111 90.8083 15.8309H87.9923L87.4984 18.6063H84.709L87.2023 4.65149H92.8029ZM91.3116 13.0041C91.8149 12.9921 92.3104 12.8765 92.7671 12.6644C93.7769 12.2125 94.3872 11.3959 94.5981 10.2147C94.8059 9.05946 94.4859 8.24759 93.6382 7.77905C93.2281 7.55966 92.7709 7.44307 92.3058 7.43933H89.4899L88.4972 13.0041H91.3116Z" fill="white"/>
<path d="M109.066 4.6499L108.567 7.4393H101.57L101.074 10.2147H106.938L106.441 13.0025H100.577L100.073 15.8309H107.069L106.575 18.6063H96.7891L99.2793 4.6499H109.066Z" fill="white"/>
<path d="M120.694 10.2146C120.321 12.2996 119.282 13.833 117.577 14.8148L118.282 18.6062H115.315L114.769 15.7529C114.495 15.7794 114.28 15.7919 114.124 15.7919H111.308L110.806 18.6062H108.019L110.512 4.61243H116.122C117.056 4.61359 117.974 4.86082 118.782 5.32925C120.475 6.25801 121.114 7.88646 120.699 10.2146M114.621 13.004C115.124 12.9922 115.619 12.8765 116.075 12.6643C117.09 12.1874 117.701 11.3709 117.908 10.2146C118.115 9.04274 117.795 8.23086 116.948 7.77895C116.547 7.5357 116.089 7.40488 115.62 7.40026H112.806L111.807 13.0102L114.621 13.004Z" fill="white"/>
<path d="M136.168 4.6499L135.669 7.4393H128.672L128.177 10.2147H134.041L133.544 13.0025H127.68L126.679 18.6063H123.892L126.382 4.6499H136.168Z" fill="white"/>
<path d="M144.738 18.6063H141.465L141.027 16.6522H135.19L134.046 18.6063H130.773L140.262 4.65149L144.738 18.6063ZM140.331 13.7989L139.24 10.4111L136.941 13.7989H140.331Z" fill="white"/>
<path d="M145.104 18.6063L147.594 4.6499L154.343 12.1688L155.685 4.6499H158.513L156.023 18.6063L149.241 11.0484L147.891 18.6063H145.104Z" fill="white"/>
</svg>
