<svg width="540" height="540" viewBox="0 0 540 540" fill="none" xmlns="http://www.w3.org/2000/svg">
<path d="M353.758 540H186.842C84.4003 540 0.599976 456.2 0.599976 353.758V187.013C0.599976 84.4003 84.4003 0.600006 186.842 0.600006H353.758C456.2 0.600006 540 84.4003 540 187.013V353.758C540 456.2 456.2 540 353.758 540Z" fill="white"/>
<path d="M138.271 225.321H140.323C144.542 225.321 146.651 227.43 146.651 231.649V254.224C145.169 257.074 143.174 259.469 140.665 261.407C138.271 263.459 135.535 264.998 132.456 266.024C129.492 267.05 126.3 267.563 122.879 267.563C116.608 267.449 111.136 265.568 106.461 261.92C101.787 258.157 98.1952 252.912 95.6869 246.185C93.2926 239.345 92.0954 231.364 92.0954 222.242C92.0954 212.779 93.4065 204.57 96.0288 197.616C98.5371 190.775 102.243 185.416 107.145 181.54C112.048 177.777 117.977 175.896 124.931 175.896C129.72 175.896 134.167 176.808 138.271 178.632C142.376 180.342 145.91 183.079 148.874 186.842C151.839 190.49 154.062 195.393 155.544 201.55H156.741L155.715 178.803C153.321 177.321 150.357 175.953 146.822 174.699C143.402 173.445 139.639 172.419 135.535 171.621C131.316 170.937 126.927 170.595 122.366 170.595C112.903 170.595 104.58 172.647 97.3971 176.752C90.3282 180.97 84.8555 186.899 80.979 194.538C77.1025 202.291 75.1644 211.297 75.1644 221.559C75.1644 232.048 77.1596 241.112 81.1501 248.751C85.0266 256.39 90.4422 262.319 97.3971 266.538C104.466 270.642 112.618 272.751 121.853 272.865C128.58 272.865 134.566 271.953 139.81 270.128C145.055 268.304 149.558 266.024 153.321 263.287C157.083 260.437 159.877 257.587 161.701 254.736V231.649C161.587 227.43 163.696 225.321 168.029 225.321H169.91V223.782H138.271V225.321Z" fill="url(#paint0_linear_4001_486)"/>
<path fill-rule="evenodd" clip-rule="evenodd" d="M274.575 194.538C278.451 202.291 280.389 211.354 280.389 221.73C280.389 232.105 278.451 241.169 274.575 248.922C270.584 256.561 264.998 262.489 257.815 266.708C250.518 270.812 242.081 272.865 232.504 272.865C222.812 272.865 214.375 270.812 207.192 266.708C199.896 262.489 194.309 256.561 190.432 248.922C186.442 241.169 184.447 232.105 184.447 221.73C184.447 211.354 186.442 202.291 190.432 194.538C194.309 186.899 199.896 180.97 207.192 176.752C214.375 172.647 222.812 170.595 232.504 170.595C242.081 170.595 250.518 172.647 257.815 176.752C264.998 180.97 270.584 186.899 274.575 194.538ZM263.458 221.73C263.458 212.381 262.204 204.285 259.696 197.444C257.188 190.604 253.596 185.302 248.922 181.54C244.247 177.777 238.774 175.896 232.504 175.896C226.233 175.896 220.76 177.777 216.086 181.54C211.411 185.302 207.82 190.604 205.311 197.444C202.803 204.285 201.549 212.381 201.549 221.73C201.549 231.079 202.803 239.174 205.311 246.015C207.82 252.856 211.411 258.157 216.086 261.92C220.76 265.682 226.233 267.563 232.504 267.563C238.774 267.563 244.247 265.682 248.922 261.92C253.596 258.157 257.188 252.856 259.696 246.015C262.204 239.174 263.458 231.079 263.458 221.73Z" fill="url(#paint1_linear_4001_486)"/>
<path d="M355.297 255.421C353.244 258.614 350.679 261.122 347.601 262.946C344.522 264.656 340.817 265.511 336.484 265.511H319.724V182.737C319.724 180.343 320.522 178.291 322.119 176.58C323.715 174.87 325.596 174.015 327.762 174.015C328.674 174.015 329.187 174.015 329.301 174.015V172.476H319.724H319.211H304.674H304.332H294.584V174.015H296.294C298.461 174.015 300.342 174.87 301.938 176.58C303.42 178.291 304.218 180.343 304.332 182.737V260.722C304.218 263.116 303.42 265.169 301.938 266.879C300.342 268.703 298.461 269.616 296.294 269.616H294.584V270.983H304.332H304.674H319.211H319.724H332.038H355.126H355.468L361.795 244.305H360.427C359.173 248.523 357.463 252.229 355.297 255.421Z" fill="url(#paint2_linear_4001_486)"/>
<path fill-rule="evenodd" clip-rule="evenodd" d="M465.434 221.73C465.434 231.763 463.496 240.485 459.619 247.896C455.743 255.192 450.27 260.837 443.201 264.827C436.133 268.932 427.81 270.983 418.232 270.983H373.596V269.616H375.306C377.472 269.616 379.354 268.703 380.95 266.879C382.432 265.169 383.23 263.116 383.344 260.722V182.737C383.344 180.343 382.546 178.291 380.95 176.58C379.354 174.87 377.472 174.015 375.306 174.015H373.767L373.596 172.476H418.232C427.81 172.476 436.133 174.471 443.201 178.462C450.27 182.452 455.743 188.153 459.619 195.564C463.496 202.975 465.434 211.696 465.434 221.73ZM448.674 221.73C448.674 212.837 447.363 205.083 444.741 198.471C442.118 191.972 438.47 186.898 433.795 183.25C429.121 179.716 423.591 177.948 417.206 177.948C414.356 177.948 411.734 177.948 409.339 177.948C407.059 177.948 404.608 177.948 401.985 177.948C400.845 177.948 399.762 177.948 398.736 177.948V265.682C399.99 265.682 401.301 265.682 402.67 265.682C405.178 265.682 407.572 265.682 409.852 265.682C412.019 265.682 414.47 265.682 417.206 265.682C423.705 265.682 429.292 263.858 433.966 260.209C438.527 256.561 442.118 251.488 444.741 244.989C447.363 238.376 448.674 230.623 448.674 221.73Z" fill="url(#paint3_linear_4001_486)"/>
<path d="M75.1644 360.257L78.7558 355.126C84.0574 360.941 89.188 363.848 96.3709 363.848C103.212 363.848 107.658 359.402 107.658 353.416V353.245C107.658 347.601 105.093 344.523 94.4897 341.787C82.6893 338.708 77.2165 334.261 77.2165 324.171V324C77.2165 314.594 84.3995 307.411 93.9767 307.411C101.502 307.411 106.803 309.977 111.934 314.936L108.684 320.238C103.896 315.62 99.1073 313.568 93.9767 313.568C87.1358 313.568 83.0313 317.843 83.0313 323.487V323.658C83.0313 329.302 85.5966 332.551 96.8839 335.459C108.342 338.366 113.473 343.326 113.473 352.561V352.732C113.473 363.164 106.29 370.005 96.0288 370.005C87.9909 370.005 81.3211 366.755 75.1644 360.257Z" fill="#B3832F"/>
<path d="M150.072 314.594H132.969V308.266H173.159V314.594H155.886V369.15H150.072V314.594Z" fill="#B3832F"/>
<path fill-rule="evenodd" clip-rule="evenodd" d="M207.877 307.924H213.178L236.437 369.15H230.28L224.295 353.073H196.589L190.432 369.15H184.618L207.877 307.924ZM222.071 346.917L210.442 315.791L198.813 346.917H222.071Z" fill="#B3832F"/>
<path d="M262.774 314.594H245.672V308.266H285.862V314.594H268.589V369.15H262.774V314.594Z" fill="#B3832F"/>
<path d="M310.66 308.266H316.304V369.15H310.66V308.266Z" fill="#B3832F"/>
<path fill-rule="evenodd" clip-rule="evenodd" d="M343.496 338.879V338.708C343.496 321.948 354.099 307.24 369.662 307.24C385.225 307.24 395.658 321.777 395.658 338.537V338.708C395.658 355.468 385.054 370.176 369.491 370.176C353.928 370.176 343.496 355.639 343.496 338.879ZM389.672 338.879V338.708C389.672 324.855 381.121 313.568 369.491 313.568C357.862 313.568 349.482 324.684 349.482 338.537V338.708C349.482 352.561 358.033 363.848 369.662 363.848C381.292 363.848 389.672 352.732 389.672 338.879Z" fill="#B3832F"/>
<path d="M420.285 308.266H425.757L457.909 357.007V308.266H463.382V369.15H458.935L425.928 319.212V369.15H420.285V308.266Z" fill="#B3832F"/>
<defs>
<linearGradient id="paint0_linear_4001_486" x1="180.701" y1="75.1943" x2="178.477" y2="231.572" gradientUnits="userSpaceOnUse">
<stop offset="0.21" stop-color="#F5E7B2"/>
<stop offset="0.58" stop-color="#D4AF37"/>
<stop offset="1" stop-color="#A67C00"/>
</linearGradient>
<linearGradient id="paint1_linear_4001_486" x1="289.837" y1="78.5994" x2="287.613" y2="235.008" gradientUnits="userSpaceOnUse">
<stop offset="0.23" stop-color="#F5E7B2"/>
<stop offset="0.58" stop-color="#D4AF37"/>
<stop offset="1" stop-color="#A67C00"/>
</linearGradient>
<linearGradient id="paint2_linear_4001_486" x1="403.051" y1="84.825" x2="400.845" y2="239.914" gradientUnits="userSpaceOnUse">
<stop offset="0.222" stop-color="#F5E7B2"/>
<stop offset="0.58" stop-color="#D4AF37"/>
<stop offset="1" stop-color="#A67C00"/>
</linearGradient>
<linearGradient id="paint3_linear_4001_486" x1="474.982" y1="84.7805" x2="472.773" y2="240.184" gradientUnits="userSpaceOnUse">
<stop offset="0.237" stop-color="#F5E7B2"/>
<stop offset="0.58" stop-color="#D4AF37"/>
<stop offset="1" stop-color="#A67C00"/>
</linearGradient>
</defs>
</svg>
